<?xml version="1.0" encoding="UTF-8" standalone="no"?>
<!-- Created with Inkscape (http://www.inkscape.org/) -->

<svg
   xmlns:dc="http://purl.org/dc/elements/1.1/"
   xmlns:cc="http://creativecommons.org/ns#"
   xmlns:rdf="http://www.w3.org/1999/02/22-rdf-syntax-ns#"
   xmlns:svg="http://www.w3.org/2000/svg"
   xmlns="http://www.w3.org/2000/svg"
   version="1.1"
   width="353.01999"
   height="120.02"
   id="svg3299">
  <defs
     id="defs3301">
    <clipPath
       id="clipPath38">
      <path
         d="m 0,841.89 595.276,0 L 595.276,0 0,0 0,841.89 z"
         id="path40" />
    </clipPath>
    <clipPath
       id="clipPath122">
      <path
         d="m 192.089,678.501 19.585,0 0,-72.634 -19.585,0 0,72.634 z"
         id="path124" />
    </clipPath>
  </defs>
  <metadata
     id="metadata3304">
    <rdf:RDF>
      <cc:Work
         rdf:about="">
        <dc:format>image/svg+xml</dc:format>
        <dc:type
           rdf:resource="http://purl.org/dc/dcmitype/StillImage" />
        <dc:title></dc:title>
      </cc:Work>
    </rdf:RDF>
  </metadata>
  <g
     transform="translate(0,-932.34218)"
     id="layer1">
    <g
       transform="matrix(1.25,0,0,-1.25,-182.32176,1800.9027)"
       id="g34">
      <g
         clip-path="url(#clipPath38)"
         id="g36">
        <g
           transform="translate(231.0548,640.6653)"
           id="g42">
          <path
             d="m 0,0 c 2.891,-2.396 6.204,-3.594 9.938,-3.594 2.247,0 3.924,0.393 5.031,1.178 1.107,0.784 1.661,1.813 1.661,3.085 0,1.107 -0.463,2.123 -1.388,3.049 -0.925,0.925 -3.164,2.147 -6.716,3.668 -3.024,1.354 -5.217,2.878 -6.58,4.572 -1.364,1.694 -2.045,3.681 -2.045,5.961 0,3.287 1.272,5.861 3.817,7.72 2.544,1.859 5.881,2.788 10.012,2.788 3.701,0 6.618,-0.463 8.749,-1.388 l 0,-6.766 c -2.363,1.619 -5.213,2.429 -8.55,2.429 -1.967,0 -3.557,-0.372 -4.771,-1.115 -1.215,-0.744 -1.822,-1.768 -1.822,-3.073 0,-1.041 0.421,-1.992 1.264,-2.851 0.843,-0.859 2.817,-1.974 5.923,-3.345 3.569,-1.554 6.048,-3.185 7.436,-4.895 1.387,-1.71 2.081,-3.755 2.081,-6.134 0,-3.437 -1.226,-6.06 -3.68,-7.869 -2.454,-1.809 -5.895,-2.714 -10.323,-2.714 -4.114,0 -7.46,0.685 -10.037,2.057 L 0,0 z"
             id="path44"
             style="fill:#ffffff;fill-opacity:1;fill-rule:nonzero;stroke:none" />
        </g>
        <g
           transform="translate(273.6177,647.6296)"
           id="g46">
          <path
             d="M 0,0 C 0,4.13 -1.702,6.196 -5.105,6.196 -6.527,6.196 -7.778,5.634 -8.86,4.511 -9.943,3.387 -10.616,1.884 -10.88,0 L 0,0 z m 6.518,-4.536 -17.398,0 c 0.281,-4.428 2.792,-6.642 7.534,-6.642 2.891,0 5.469,0.76 7.733,2.281 l 0,-5.255 c -2.413,-1.404 -5.511,-2.106 -9.294,-2.106 -4.049,0 -7.2,1.173 -9.455,3.519 -2.256,2.346 -3.383,5.626 -3.383,9.839 0,4.131 1.21,7.489 3.631,10.075 2.42,2.586 5.448,3.879 9.083,3.879 3.635,0 6.468,-1.116 8.501,-3.346 2.032,-2.231 3.048,-5.296 3.048,-9.195 l 0,-3.049 z"
             id="path48"
             style="fill:#ffffff;fill-opacity:1;fill-rule:nonzero;stroke:none" />
        </g>
        <g
           transform="translate(305.4898,632.0157)"
           id="g50">
          <path
             d="m 0,0 -6.89,0 0,4.015 -0.124,0 c -1.917,-3.106 -4.577,-4.659 -7.98,-4.659 -6.097,0 -9.146,3.668 -9.146,11.004 l 0,15.688 6.915,0 0,-14.97 c 0,-4.213 1.636,-6.32 4.907,-6.32 1.603,0 2.908,0.574 3.916,1.723 1.008,1.148 1.512,2.689 1.512,4.622 l 0,14.945 6.89,0 L 0,0 z"
             id="path52"
             style="fill:#ffffff;fill-opacity:1;fill-rule:nonzero;stroke:none" />
        </g>
        <g
           transform="translate(244.3448,598.6389)"
           id="g54">
          <path
             d="m 0,0 c -4.124,0 -7.463,1.281 -9.926,3.807 -2.461,2.524 -3.708,5.924 -3.708,10.106 0,4.379 1.388,8.016 4.126,10.81 2.74,2.797 6.301,4.215 10.584,4.215 2.679,0 4.957,-0.364 6.771,-1.082 l 0.222,-0.088 0,-6.008 -0.529,0.307 c -1.792,1.039 -3.854,1.566 -6.13,1.566 -2.643,0 -4.788,-0.867 -6.374,-2.577 -1.593,-1.717 -2.401,-3.996 -2.401,-6.773 0,-2.727 0.767,-4.93 2.28,-6.549 1.506,-1.612 3.547,-2.43 6.068,-2.43 2.41,0 4.615,0.583 6.555,1.732 l 0.531,0.315 0,-5.713 L 7.876,1.541 C 5.857,0.518 3.207,0 0,0"
             id="path56"
             style="fill:#ffffff;fill-opacity:1;fill-rule:nonzero;stroke:none" />
        </g>
        <g
           transform="translate(263.9551,615.0561)"
           id="g58">
          <path
             d="m 0,0 c -1.509,0 -2.645,-0.5 -3.473,-1.529 -0.835,-1.038 -1.258,-2.502 -1.258,-4.352 0,-3.895 1.554,-5.788 4.749,-5.788 3.072,0 4.565,1.942 4.565,5.936 C 4.583,-1.875 3.084,0 0,0 m -0.148,-16.417 c -3.199,0 -5.78,0.955 -7.669,2.839 -1.891,1.884 -2.849,4.448 -2.849,7.623 0,3.273 0.984,5.901 2.925,7.81 1.939,1.907 4.593,2.874 7.889,2.874 3.187,0 5.746,-0.949 7.605,-2.821 1.859,-1.872 2.802,-4.405 2.802,-7.529 0,-3.247 -0.973,-5.886 -2.893,-7.843 -1.921,-1.96 -4.549,-2.953 -7.81,-2.953"
             id="path60"
             style="fill:#ffffff;fill-opacity:1;fill-rule:nonzero;stroke:none" />
        </g>
        <g
           transform="translate(288.6606,599.1212)"
           id="g62">
          <path
             d="m 0,0 0,11.278 c 0,3.134 -1.068,4.657 -3.265,4.657 -1.113,0 -1.993,-0.405 -2.689,-1.237 -0.703,-0.84 -1.059,-1.928 -1.059,-3.234 l 0,-11.464 -5.88,0 0,20.201 5.88,0 0,-2.422 c 1.468,1.916 3.492,2.885 6.029,2.885 4.542,0 6.845,-2.821 6.845,-8.384 L 5.861,0 0,0 z"
             id="path64"
             style="fill:#ffffff;fill-opacity:1;fill-rule:nonzero;stroke:none" />
        </g>
        <g
           transform="translate(306.1153,615.0561)"
           id="g66">
          <path
             d="m 0,0 c -1.378,0 -2.436,-0.524 -3.232,-1.601 -0.81,-1.095 -1.221,-2.616 -1.221,-4.521 0,-1.777 0.392,-3.167 1.166,-4.13 0.765,-0.954 1.773,-1.417 3.083,-1.417 1.259,0 2.262,0.485 3.065,1.482 0.81,1.007 1.221,2.319 1.221,3.898 l 0,1.855 C 4.082,-3.141 3.7,-2.1 2.914,-1.25 2.135,-0.409 1.182,0 0,0 m -1.948,-16.417 c -2.546,0 -4.616,0.928 -6.15,2.76 -1.519,1.812 -2.29,4.298 -2.29,7.386 0,3.274 0.858,5.95 2.55,7.954 1.707,2.021 3.957,3.046 6.688,3.046 2.275,0 4.005,-0.729 5.157,-2.17 l 0,11.056 5.861,0 0,-29.55 -5.861,0 0,2.243 c -1.429,-1.809 -3.428,-2.725 -5.955,-2.725"
             id="path68"
             style="fill:#ffffff;fill-opacity:1;fill-rule:nonzero;stroke:none" />
        </g>
        <g
           transform="translate(327.7856,615.0561)"
           id="g70">
          <path
             d="m 0,0 c -1.509,0 -2.645,-0.5 -3.473,-1.529 -0.835,-1.037 -1.258,-2.502 -1.258,-4.352 0,-3.895 1.554,-5.788 4.75,-5.788 3.071,0 4.564,1.942 4.564,5.936 C 4.583,-1.875 3.084,0 0,0 m -0.148,-16.417 c -3.199,0 -5.779,0.955 -7.669,2.839 -1.89,1.884 -2.849,4.448 -2.849,7.623 0,3.274 0.984,5.901 2.925,7.81 1.939,1.907 4.594,2.874 7.889,2.874 3.187,0 5.746,-0.949 7.605,-2.821 1.859,-1.872 2.802,-4.405 2.802,-7.529 0,-3.247 -0.973,-5.886 -2.893,-7.843 -1.921,-1.96 -4.549,-2.953 -7.81,-2.953"
             id="path72"
             style="fill:#ffffff;fill-opacity:1;fill-rule:nonzero;stroke:none" />
        </g>
        <g
           transform="translate(364.2969,599.1212)"
           id="g74">
          <path
             d="m 0,0 0,11.482 c 0,2.996 -1.026,4.453 -3.136,4.453 -0.967,0 -1.757,-0.43 -2.416,-1.315 -0.674,-0.904 -1.016,-2.01 -1.016,-3.286 l 0,-11.334 -5.861,0 0,11.686 c 0,2.859 -1.019,4.249 -3.117,4.249 -0.995,0 -1.79,-0.401 -2.43,-1.227 -0.653,-0.842 -0.984,-1.996 -0.984,-3.43 l 0,-11.278 -5.879,0 0,20.201 5.879,0 0,-2.389 c 1.48,1.894 3.479,2.852 5.956,2.852 2.658,0 4.558,-1.129 5.658,-3.358 1.533,2.23 3.701,3.358 6.455,3.358 4.48,0 6.752,-2.764 6.752,-8.217 L 5.861,0 0,0 z"
             id="path76"
             style="fill:#ffffff;fill-opacity:1;fill-rule:nonzero;stroke:none" />
        </g>
        <g
           transform="translate(371.7888,622.2603)"
           id="g78">
          <path
             d="M 0,0 3.743,6.3 9.431,6.3 4.654,0 0,0 z m 0.002,-2.939 5.861,0 0,-20.201 -5.861,0 0,20.201 z"
             id="path80"
             style="fill:#ffffff;fill-opacity:1;fill-rule:nonzero;stroke:none" />
        </g>
        <g
           transform="translate(392.5123,599.1212)"
           id="g82">
          <path
             d="m 0,0 0,11.278 c 0,3.134 -1.068,4.657 -3.265,4.657 -1.113,0 -1.993,-0.405 -2.689,-1.237 -0.703,-0.84 -1.059,-1.928 -1.059,-3.234 l 0,-11.464 -5.88,0 0,20.201 5.88,0 0,-2.422 c 1.468,1.916 3.492,2.885 6.029,2.885 4.542,0 6.845,-2.821 6.845,-8.384 L 5.861,0 0,0 z"
             id="path84"
             style="fill:#ffffff;fill-opacity:1;fill-rule:nonzero;stroke:none" />
        </g>
        <g
           transform="translate(402.9557,622.2352)"
           id="g86">
          <path
             d="m 0,0 c -0.968,0 -1.78,0.308 -2.414,0.914 -0.638,0.61 -0.962,1.364 -0.962,2.239 0,0.889 0.321,1.643 0.955,2.241 0.627,0.593 1.442,0.894 2.421,0.894 0.951,0 1.761,-0.296 2.406,-0.88 C 3.062,4.815 3.394,4.057 3.394,3.153 3.394,2.251 3.066,1.49 2.419,0.891 1.779,0.3 0.965,0 0,0 m -2.967,-2.913 5.861,0 0,-20.201 -5.861,0 0,20.201 z"
             id="path88"
             style="fill:#ffffff;fill-opacity:1;fill-rule:nonzero;stroke:none" />
        </g>
        <g
           transform="translate(417.7177,615.0561)"
           id="g90">
          <path
             d="m 0,0 c -1.509,0 -2.645,-0.5 -3.473,-1.529 -0.835,-1.037 -1.258,-2.502 -1.258,-4.352 0,-3.895 1.554,-5.788 4.749,-5.788 3.072,0 4.565,1.942 4.565,5.936 C 4.583,-1.875 3.084,0 0,0 m -0.148,-16.417 c -3.199,0 -5.779,0.955 -7.669,2.839 -1.891,1.884 -2.849,4.448 -2.849,7.623 0,3.273 0.984,5.901 2.925,7.81 1.939,1.907 4.593,2.874 7.889,2.874 3.187,0 5.746,-0.949 7.605,-2.821 1.859,-1.872 2.802,-4.405 2.802,-7.529 0,-3.247 -0.973,-5.886 -2.893,-7.843 -1.921,-1.96 -4.549,-2.953 -7.81,-2.953"
             id="path92"
             style="fill:#ffffff;fill-opacity:1;fill-rule:nonzero;stroke:none" />
        </g>
        <g
           transform="translate(165.153,610.0235)"
           id="g94">
          <path
             class="logo-preto"
             d="m 0,0 -7.308,-10.272 c -0.331,-0.468 0.003,-1.077 0.577,-1.077 l 49.214,0 c 0.564,0 0.9,0.661 0.587,1.13 l -6.877,10.186 c -0.131,0.197 -0.352,0.191 -0.588,0.191 l -35.029,0 C 0.347,0.158 0.132,0.187 0,0"
             id="path96"
             style="fill:#18181A;fill-opacity:1;fill-rule:nonzero;stroke:none" />
        </g>
        <g
           transform="translate(167.3828,608.7431)"
           id="g98">
          <path
             d="m 0,0 c -0.198,0 -0.269,0 -0.371,-0.17 l -3.672,-5.994 c -0.102,-0.169 -0.023,-0.308 0.175,-0.308 l 39.13,0 c 0.198,0 0.281,0.141 0.185,0.314 l -3.422,5.982 C 31.929,-0.003 31.862,0 31.664,0 L 0,0 z"
             id="path100"
             style="fill:#ffffff;fill-opacity:1;fill-rule:nonzero;stroke:none" />
        </g>
        <g
           transform="translate(163.2351,668.4329)"
           id="g102">
          <path
             class="logo-preto"
             d="m 0,0 -9.642,0 -7.735,-8.63 18.991,0 L 0,0 z"
             id="path104"
             style="fill:#18181A;fill-opacity:1;fill-rule:nonzero;stroke:none" />
        </g>
        <g
           transform="translate(164.8492,659.803)"
           id="g106">
           <!-- Torre Esquerda -->
           <!-- #0083ae azul -->
           <!-- #00a4d9 azul claro (para fundos azuis) -->
          <path
             class="logo-azul"
             d="m 0,0 -18.991,0 23.741,-53.217 5.204,0 L 0,0 z"
             id="path108"
             style="fill:#00a4d9;fill-opacity:1;fill-rule:nonzero;stroke:none" />
        </g>
        <g
           transform="translate(202.1532,669.152)"
           id="g110">
          <path
             class="logo-preto"
             d="M 0,0 21.464,0 14.785,9.349 1.487,9.349 0,0 z"
             id="path112"
             style="fill:#18181A;fill-opacity:1;fill-rule:nonzero;stroke:none" />
        </g>
        <g
           transform="translate(202.1532,669.152)"
           id="g114">
           <!-- Torre Direita -->
           <!-- #0083ae azul -->
           <!-- #00a4d9 azul claro (para fundos azuis) -->
          <path
             class="logo-azul"
             d="m 0,0 -10.064,-63.286 4.16,0 L 21.464,0 0,0 z"
             id="path116"
             style="fill:#00a4d9;fill-opacity:1;fill-rule:nonzero;stroke:none" />
        </g>
        <g
           id="g118">
          <g
             id="g120" />
          <g
             id="g126">
            <g
               clip-path="url(#clipPath122)"
               id="g128"
               style="opacity:0.19999701">
              <g
                 transform="translate(207.245,678.501)"
                 id="g130">
                <path
                   d="m 0,0 -3.605,0 -11.551,-72.635 2.268,0 L 4.429,-9.371 0,0 z"
                   id="path132"
                   style="fill:#000000;fill-opacity:1;fill-rule:nonzero;stroke:none" />
              </g>
            </g>
          </g>
        </g>
        <g
           transform="translate(159.8252,682.8159)"
           id="g134">
          <path
             class="logo-preto"
             d="m 0,0 8.553,12.226 27.87,0 L 45.221,0 0,0 z"
             id="path136"
             style="fill:#18181A;fill-opacity:1;fill-rule:nonzero;stroke:none" />
        </g>
        <g
           transform="translate(159.8252,682.8159)"
           id="g138">
           <!-- Torre meio -->
           <!-- #3ea4d2 azul -->
           <!-- #4abdf2 azul claro (para fundos azuis) -->
          <path
             class="logo-azul-meio"
             d="m 0,0 45.221,0 -12.466,-78.388 -18.093,0 L 0,0 z"
             id="path140"
             style="fill:#4abdf2;fill-opacity:1;fill-rule:nonzero;stroke:none" />
        </g>
      </g>
    </g>
  </g>
</svg>
